<mxfile host="app.diagrams.net" modified="2022-05-30T09:42:54.460Z" agent="5.0 (Windows NT 10.0; Win64; x64) AppleWebKit/537.36 (KHTML, like Gecko) Chrome/100.0.4896.143 YaBrowser/22.5.0.1814 Yowser/2.5 Safari/537.36" etag="189JqrLQmUj5Q1AhurT1" version="18.1.3" type="github">
  <diagram id="RMUESAkdiqb1FyGkMMIy" name="Page-1">
    <mxGraphModel dx="2249" dy="803" grid="1" gridSize="10" guides="1" tooltips="1" connect="1" arrows="1" fold="1" page="1" pageScale="1" pageWidth="827" pageHeight="1169" math="0" shadow="0">
      <root>
        <mxCell id="0" />
        <mxCell id="1" parent="0" />
        <mxCell id="QNhxrTPGR0tlaY3c65oK-8" style="edgeStyle=orthogonalEdgeStyle;rounded=0;orthogonalLoop=1;jettySize=auto;html=1;entryX=0;entryY=0.5;entryDx=0;entryDy=0;" edge="1" parent="1" source="QNhxrTPGR0tlaY3c65oK-1" target="QNhxrTPGR0tlaY3c65oK-3">
          <mxGeometry relative="1" as="geometry">
            <Array as="points">
              <mxPoint x="410" y="175" />
              <mxPoint x="410" y="175" />
            </Array>
          </mxGeometry>
        </mxCell>
        <mxCell id="QNhxrTPGR0tlaY3c65oK-1" value="" style="rounded=1;whiteSpace=wrap;html=1;" vertex="1" parent="1">
          <mxGeometry x="-240" width="640" height="660" as="geometry" />
        </mxCell>
        <mxCell id="QNhxrTPGR0tlaY3c65oK-2" value="domain" style="text;html=1;strokeColor=none;fillColor=none;align=center;verticalAlign=middle;whiteSpace=wrap;rounded=0;" vertex="1" parent="1">
          <mxGeometry x="-230" y="50" width="60" height="30" as="geometry" />
        </mxCell>
        <mxCell id="QNhxrTPGR0tlaY3c65oK-3" value="" style="rounded=1;whiteSpace=wrap;html=1;" vertex="1" parent="1">
          <mxGeometry x="470" width="540" height="350" as="geometry" />
        </mxCell>
        <mxCell id="QNhxrTPGR0tlaY3c65oK-4" value="presentation" style="text;html=1;strokeColor=none;fillColor=none;align=center;verticalAlign=middle;whiteSpace=wrap;rounded=0;" vertex="1" parent="1">
          <mxGeometry x="500" y="10" width="60" height="30" as="geometry" />
        </mxCell>
        <mxCell id="QNhxrTPGR0tlaY3c65oK-7" style="edgeStyle=orthogonalEdgeStyle;rounded=0;orthogonalLoop=1;jettySize=auto;html=1;" edge="1" parent="1" source="QNhxrTPGR0tlaY3c65oK-5" target="QNhxrTPGR0tlaY3c65oK-6">
          <mxGeometry relative="1" as="geometry" />
        </mxCell>
        <mxCell id="QNhxrTPGR0tlaY3c65oK-5" value="ViewModel" style="rounded=0;whiteSpace=wrap;html=1;" vertex="1" parent="1">
          <mxGeometry x="700" y="15" width="120" height="100" as="geometry" />
        </mxCell>
        <mxCell id="QNhxrTPGR0tlaY3c65oK-6" value="MainActivity" style="rounded=0;whiteSpace=wrap;html=1;" vertex="1" parent="1">
          <mxGeometry x="880" y="90" width="120" height="150" as="geometry" />
        </mxCell>
        <mxCell id="QNhxrTPGR0tlaY3c65oK-9" value="MakeToastUserNameById&lt;br&gt;UseCase" style="ellipse;whiteSpace=wrap;html=1;" vertex="1" parent="1">
          <mxGeometry x="190" y="30" width="170" height="100" as="geometry" />
        </mxCell>
        <mxCell id="QNhxrTPGR0tlaY3c65oK-10" value="GetUsersByGitHub&lt;br&gt;UseCase" style="ellipse;whiteSpace=wrap;html=1;" vertex="1" parent="1">
          <mxGeometry x="190" y="140" width="180" height="110" as="geometry" />
        </mxCell>
      </root>
    </mxGraphModel>
  </diagram>
</mxfile>
